# AST/ASF file generated using VICON BodyLanguage
# -----------------------------------------------
:version 1.10
:name VICON
:units
  mass 1.0
  length 0.45
  angle deg
:documentation
   .ast/.asf automatically generated from VICON data using
   VICON BodyBuilder and BodyLanguage model FoxedUp or BRILLIANT.MOD
:root
   order TX TY TZ RX RY RZ
   axis XYZ
   position 0 0 0  
   orientation 0 0 0 
:bonedata
  begin
     id 1 
     name lhipjoint
     direction 0.521689 -0.742065 0.420928 
     length 2.47002 
     axis 0 0 0  XYZ
  end
  begin
     id 2 
     name lfemur
     direction 0.34202 -0.939693 0  
     length 7.24654  
     axis 0 0 20  XYZ
    dof rx ry rz
    limits (-160.0 20.0)
           (-70.0 70.0)
           (-60.0 70.0)
  end
  begin
     id 3 
     name ltibia
     direction 0.34202 -0.939693 0   
     length 8.04849   
     axis 0 0 20   XYZ
    dof rx
    limits (-10.0 170.0)
  end
  begin
     id 4 
     name lfoot
     direction 0.0745411 -0.2048 0.975961   
     length 1.72367   
     axis -90 7.62852e-016 20   XYZ
    dof rx rz
    limits (-45.0 90.0)
           (-70.0 20.0)
  end
  begin
     id 5 
     name ltoes
     direction 1.53556e-011 -4.21901e-011 1   
     length 0.87311   
     axis -90 7.62852e-016 20   XYZ
    dof rx
    limits (-90.0 20.0)
  end
  begin
     id 6 
     name rhipjoint
     direction -0.52849 -0.738415 0.418857   
     length 2.48223  
     axis 0 0 0  XYZ 
  end
  begin
     id 7 
     name rfemur
     direction -0.34202 -0.939693 0   
     length 7.15571   
     axis 0 0 -20   XYZ
    dof rx ry rz
    limits (-160.0 20.0)
           (-70.0 70.0)
           (-70.0 60.0)
  end
  begin
     id 8 
     name rtibia
     direction -0.34202 -0.939693 0   
     length 7.81659   
     axis 0 0 -20   XYZ
    dof rx
    limits (-10.0 170.0)
 end
 begin
     id 9 
     name rfoot
     direction -0.0917348 -0.252039 0.963359   
     length 1.84382  
     axis -90 -7.62852e-016 -20   XYZ
    dof rx rz
    limits (-45.0 90.0)
           (-20.0 70.0)
  end
  begin
     id 10 
     name rtoes
     direction -1.53551e-011 -4.21879e-011 1   
     length 0.927771   
     axis -90 -7.62852e-016 -20   XYZ
    dof rx
    limits (-90.0 20.0)
  end
  begin
     id 11 
     name lowerback
     direction 0.00583058 0.999822 0.0179296   
     length 2.1429   
     axis 0 0 0   XYZ
    dof rx ry rz
    limits (-20.0 45.0)
           (-30.0 30.0)
           (-30.0 30.0)
  end
  begin
     id 12 
     name upperback
     direction -0.0137999 0.999752 -0.0175071   
     length 2.14252   
     axis 0 0 0   XYZ
    dof rx ry rz
    limits (-20.0 45.0)
           (-30.0 30.0)
           (-30.0 30.0)
  end
  begin
     id 13 
     name thorax
     direction -0.0158036 0.99955 -0.0254909   
     length 2.1383   
     axis 0 0 0   XYZ
    dof rx ry rz
    limits (-20.0 45.0)
           (-30.0 30.0)
           (-30.0 30.0)
  end
  begin
     id 14 
     name lowerneck
     direction -0.0101179 0.999403 -0.0330262   
     length 1.65808   
     axis 0 0 0   XYZ
    dof rx ry rz
    limits (-20.0 45.0)
           (-30.0 30.0)
           (-30.0 30.0)
  end
  begin
     id 15 
     name upperneck
     direction 0.0497734 0.995978 -0.074501   
     length 1.5897   
     axis 0 0 0   XYZ
    dof rx ry rz
    limits (-20.0 45.0)
           (-30.0 30.0)
           (-30.0 30.0)
  end
  begin
     id 16
     name head
     direction 0.0189524 0.999519 -0.0245438  
     length 1.74024  
     axis 0 0 0   XYZ
    dof rx ry rz
    limits (-20.0 45.0)
           (-30.0 30.0)
           (-30.0 30.0)
  end
  begin
     id 17 
     name lclavicle
     direction 0.945604 0.324422 0.0241537  
     length 3.59089  
     axis 0 0 0   XYZ
    dof ry rz
    limits (-20.0 10.0)
           (0.0 20.0)
  end
  begin
     id 18 
     name lhumerus
     direction 1 -4.48964e-011 -2.63524e-027   
     length 5.2391   
     axis 180 -30 -90   XYZ
    dof rx ry rz
    limits (-60.0 90.0)
           (-90.0 90.0)
           (-90.0 90.0)
  end
  begin
     id 19
     name lradius
     direction 1 -4.48969e-011 3.86978e-028   
     length 3.31467   
     axis 180 -30 -90   XYZ
    dof rx
    limits (-10.0 170.0)
  end
  begin
     id 20
     name lwrist
     direction 1 -4.48963e-011 7.20928e-028   
     length 1.65734   
     axis -5.52449e-016 90 90   XYZ
    dof ry
    limits (-180.0 0.0)
 end
  begin
     id 21 
     name lhand
     direction 1 -4.48964e-011 1.44186e-027   
     length 0.9659   
     axis -9.20027e-016 90 90   XYZ
    dof rx rz
    limits (-90.0 90.0)
           (-45.0 45.0)
  end
  begin
     id 22 
     name lfingers
     direction 1 -4.48965e-011 2.88371e-027   
     length 0.778733   
     axis -1.84005e-015 90 90   XYZ
    dof rx
    limits (0.0 90.0)
  end
  begin
     id 23
     name lthumb
     direction 0.707107 -6.34931e-011 0.707107   
     length 1.11811   
     axis -90 45 2.85299e-015   XYZ
    dof rx rz
    limits (-45.0 45.0)
           (-45.0 45.0)
  end
  begin
     id 24 
     name rclavicle
     direction -0.923762 0.370785 0.0958234   
     length 3.54196  
     axis 0 0 0   XYZ 
    dof ry rz
    limits (-10.0 20.0)
           (-20.0 0.0)
  end
  begin
     id 25 
     name rhumerus
     direction -1 -4.48966e-011 1.18702e-017  
     length 5.30252   
     axis 180 30 90   XYZ
    dof rx ry rz
    limits (-90.0 60.0)
           (-90.0 90.0)
           (-90.0 90.0)
  end
  begin
     id 26 
     name rradius
     direction -1 -4.48966e-011 4.46736e-027   
     length 3.67875   
     axis 180 30 90   XYZ
    dof rx
    limits (-10.0 170.0)
  end
  begin
     id 27 
     name rwrist
     direction -1 -4.48966e-011 7.20928e-028   
     length 1.83937   
     axis -5.52449e-016 -90 -90   XYZ
    dof ry
    limits (-180.0 0.0)
  end
  begin
     id 28
     name rhand
     direction -1 -4.48973e-011 1.44186e-027   
     length 0.594811   
     axis -9.20027e-016 -90 -90   XYZ
    dof rx rz
    limits (-90.0 90.0)
           (-45.0 45.0)
  end
  begin
     id 29
     name rfingers
     direction -1 -4.48963e-011 2.88371e-027   
     length 0.479552   
     axis -1.84005e-015 -90 -90   XYZ
    dof rx
    limits (0.0 90.0)
  end
  begin
     id 30
     name rthumb
     direction -0.707107 -6.34932e-011 0.707107   
     length 0.688544   
     axis -90 -45 -2.85299e-015   XYZ
    dof rx rz
    limits (-45.0 45.0)
           (-45.0 45.0)
  end
:hierarchy
  begin
    root lhipjoint rhipjoint lowerback
    lhipjoint lfemur
    lfemur ltibia
    ltibia lfoot
    lfoot ltoes
    rhipjoint rfemur
    rfemur rtibia
    rtibia rfoot
    rfoot rtoes
    lowerback upperback
    upperback thorax
    thorax lowerneck lclavicle rclavicle
    lowerneck upperneck
    upperneck head
    lclavicle lhumerus
    lhumerus lradius
    lradius lwrist
    lwrist lhand lthumb
    lhand lfingers
    rclavicle rhumerus
    rhumerus rradius
    rradius rwrist
    rwrist rhand rthumb
    rhand rfingers
  end

#!OML:ASF E:\acrobat2\Project_11_07_03\Capture day 1\Session 1\Acrobat.ASF
:FULLY-SPECIFIED
:DEGREES
1069
root 6.06763 27.2122 23.7557 6.80279 -49.4092 5.28072
lowerback 12.9049 2.81446 3.48095
upperback 7.22084 3.88568 -0.50248
thorax 0.63873 1.98153 -2.93589
lowerneck -1.43771 -1.29811 -0.879038
upperneck 18.2587 -1.87371 -0.0149652
head 5.75078 -1.02556 0.0366041
rclavicle -5.1684e-014 5.56597e-015
rhumerus 25.4627 7.21502 -58.6728
rradius 80.7062
rwrist -7.20292
rhand -25.959 -13.2496
rfingers 7.12502
rthumb 0.585346 -43.2285
lclavicle -5.1684e-014 5.56597e-015
lhumerus -17.5917 28.4334 18.0729
lradius 69.5781
lwrist 2.10874
lhand -54.8375 -68.4775
lfingers 7.12502
lthumb -27.2248 -40.4221
rfemur -33.1148 -4.98213 13.9
rtibia 34.1909
rfoot -14.3428 -9.40924
rtoes -14.385
lfemur -30.7444 -9.95874 -15.4001
ltibia 32.5952
lfoot -9.23595 -16.5193
ltoes 32.2887
1070
root 6.02616 27.2001 23.8108 6.941 -49.0045 4.99742
lowerback 12.9961 2.46202 3.70687
upperback 7.16934 3.45239 -0.544105
thorax 0.520799 1.77017 -3.06408
lowerneck -1.47829 -1.10639 -0.732246
upperneck 18.2999 -1.62993 -0.00371627
head 5.76819 -0.899141 0.0279792
rclavicle 1.07344e-014 7.95139e-016
rhumerus 24.6442 6.63887 -58.4112
rradius 81.3251
rwrist -7.19452
rhand -26.2476 -13.4161
rfingers 7.12502
rthumb 0.306621 -43.3957
lclavicle 1.07344e-014 7.95139e-016
lhumerus -17.4322 29.2954 18.328
lradius 68.3769
lwrist 3.37097
lhand -54.6604 -68.152
lfingers 7.12502
lthumb -27.0553 -40.0702
rfemur -33.4141 -5.35255 13.786
rtibia 34.73
rfoot -14.1745 -9.19841
rtoes -13.0924
lfemur -30.2715 -9.32373 -15.4785
ltibia 31.6466
lfoot -10.2819 -15.3777
ltoes 29.8072
1071
root 5.99093 27.1904 23.855 7.1503 -48.4482 4.67975
lowerback 13.1441 2.07386 3.93079
upperback 7.10032 2.97657 -0.505486
thorax 0.341987 1.53402 -3.10414
lowerneck -1.55448 -0.909787 -0.595826
upperneck 18.3019 -1.36984 -0.0376718
head 5.77945 -0.767993 0.00781008
rclavicle -1.98785e-014 3.73715e-014
rhumerus 23.8704 6.11157 -57.9942
rradius 82.0435
rwrist -7.47704
rhand -26.5367 -13.7165
rfingers 7.12502
rthumb 0.027403 -43.6962
lclavicle -1.98785e-014 3.73715e-014
lhumerus -17.3026 30.1931 18.7534
lradius 67.3325
lwrist 4.78611
lhand -54.5304 -67.686
lfingers 7.12502
lthumb -26.9309 -39.5849
rfemur -33.7744 -5.69045 13.7094
rtibia 35.3117
rfoot -14.1745 -9.0171
rtoes -12.2656
lfemur -30.2227 -8.81622 -15.3263
ltibia 31.1179
lfoot -10.6103 -14.0406
ltoes 27.7321
1072
root 5.95799 27.183 23.8907 7.37663 -47.7933 4.37396
lowerback 13.302 1.68085 4.10658
upperback 7.04159 2.49129 -0.395269
thorax 0.159356 1.29013 -3.03839
lowerneck -1.67146 -0.717674 -0.470764
upperneck 18.27 -1.10909 -0.0981884
head 5.78751 -0.638441 -0.0186886
rclavicle -2.90226e-014 3.97569e-015
rhumerus 23.3881 5.5587 -57.5905
rradius 82.6044
rwrist -7.94954
rhand -26.8057 -14.0925
rfingers 7.12502
rthumb -0.232416 -44.0722
lclavicle -2.90226e-014 3.97569e-015
lhumerus -17.2116 31.0818 19.3626
lradius 66.5432
lwrist 6.37233
lhand -54.4482 -67.1719
lfingers 7.12502
lthumb -26.8523 -39.0587
rfemur -34.1538 -6.00694 13.6693
rtibia 35.9608
rfoot -14.348 -8.75895
rtoes -12.0317
lfemur -30.4376 -8.45272 -14.9835
ltibia 30.7701
lfoot -10.1904 -12.7164
ltoes 26.1551
1073
root 5.9209 27.1771 23.9266 7.5615 -47.0681 4.10161
lowerback 13.3793 1.29912 4.26341
upperback 7.03438 2.01505 -0.235153
thorax 0.0716266 1.05195 -2.90398
lowerneck -1.85617 -0.543937 -0.381111
upperneck 18.2498 -0.872163 -0.142023
head 5.81169 -0.521149 -0.035385
rclavicle -3.61788e-014 2.38542e-015
rhumerus 23.2028 4.9673 -57.2568
rradius 82.9794
rwrist -8.5607
rhand -27.0895 -14.5376
rfingers 7.12502
rthumb -0.506524 -44.5167
lclavicle -3.61788e-014 2.38542e-015
lhumerus -17.1149 31.9484 20.1785
lradius 66.0711
lwrist 8.10593
lhand -54.3497 -66.5681
lfingers 7.12502
lthumb -26.758 -38.4405
rfemur -34.4407 -6.40738 13.684
rtibia 36.6783
rfoot -14.6542 -8.29963
rtoes -12.4011
lfemur -30.6508 -8.2701 -14.5251
ltibia 30.2777
lfoot -9.14277 -11.4679
ltoes 25.2402
1074
root 5.87641 27.1722 23.965 7.70558 -46.3491 3.82532
lowerback 13.3774 0.960457 4.42013
upperback 7.07332 1.59046 -0.037174
thorax 0.0787381 0.841417 -2.73183
lowerneck -2.09944 -0.401592 -0.338913
upperneck 18.2834 -0.681852 -0.137582
head 5.86364 -0.426116 -0.0314953
rclavicle 2.38542e-015 2.54444e-014
rhumerus 23.2887 4.3403 -57.0715
rradius 83.1324
rwrist -9.23299
rhand -27.3719 -15.0377
rfingers 7.12502
rthumb -0.779282 -45.016
lclavicle 2.38542e-015 2.54444e-014
lhumerus -16.9707 32.7634 21.1961
lradius 65.9362
lwrist 9.94035
lhand -54.2719 -65.8007
lfingers 7.12502
lthumb -26.6835 -37.6617
rfemur -34.6313 -6.86608 13.8162
rtibia 37.5322
rfoot -15.0718 -7.6815
rtoes -13.2541
lfemur -30.6864 -8.23416 -13.9407
ltibia 29.424
lfoot -7.75627 -10.16
ltoes 24.3447
1075
root 5.82366 27.1661 24.0114 7.7946 -45.6621 3.56474
lowerback 13.2562 0.665015 4.61511
upperback 7.14141 1.21953 0.168572
thorax 0.186995 0.661323 -2.57686
lowerneck -2.3796 -0.301361 -0.332654
upperneck 18.4178 -0.552716 -0.0979196
head 5.95414 -0.360951 -0.0138578
rclavicle -4.33351e-014 -7.15625e-015
rhumerus 23.528 3.75029 -57.024
rradius 83.1319
rwrist -9.94541
rhand -27.6647 -15.6125
rfingers 7.12502
rthumb -1.06204 -45.5896
lclavicle -4.33351e-014 -7.15625e-015
lhumerus -16.7745 33.4585 22.3698
lradius 66.105
lwrist 11.8091
lhand -54.0956 -65.0118
lfingers 7.12502
lthumb -26.5149 -36.8472
rfemur -34.7409 -7.45429 14.0607
rtibia 38.5888
rfoot -15.595 -6.98416
rtoes -14.2798
lfemur -30.4453 -8.43502 -13.2711
ltibia 28.0823
lfoot -6.29382 -8.62712
ltoes 22.7205
1076
root 5.7645 27.1574 24.0672 7.8585 -45.0699 3.27384
lowerback 13.0409 0.423485 4.90771
upperback 7.21152 0.923291 0.363008
thorax 0.357405 0.523107 -2.49763
lowerneck -2.64238 -0.251905 -0.323108
upperneck 18.642 -0.490696 -0.0816831
head 6.07026 -0.330141 -0.0078541
rclavicle -9.93923e-015 7.95139e-016
rhumerus 23.8225 3.2497 -57.1018
rradius 83.0286
rwrist -10.6697
rhand -27.9837 -16.258
rfingers 7.12502
rthumb -1.37013 -46.2333
lclavicle -9.93923e-015 7.95139e-016
lhumerus -16.5052 33.9896 23.6438
lradius 66.5036
lwrist 13.5574
lhand -53.9255 -64.2648
lfingers 7.12502
lthumb -26.352 -36.0757
rfemur -34.7983 -8.12306 14.4486
rtibia 39.8749
rfoot -16.2501 -6.37613
rtoes -15.2233
lfemur -29.9022 -8.9196 -12.4818
ltibia 26.2371
lfoot -4.86999 -6.81848
ltoes 20.6851
